<?xml version="1.0" encoding="UTF-8"?>
<svg id="Layer_1" data-name="Layer 1" xmlns="http://www.w3.org/2000/svg" viewBox="0 0 841.89 595.28">
  <defs>
    <style>
      .cls-1 {
        fill: #fff;
      }

      .cls-2 {
        fill: #c9187d;
      }
    </style>
  </defs>
  <path class="cls-1" d="M261.06,242.12h13.49c6.2,0,9.47,3.37,9.47,9.1s-3.27,9.16-9.47,9.12h-9.4v12.61h-4.09v-30.83ZM265.15,256.92h8.02c4.68.02,6.73-2.01,6.73-5.7s-2.05-5.63-6.73-5.63h-8.02v11.33Z"/>
  <path class="cls-1" d="M289.04,242.12h4.1v27.42h16.31v3.41h-20.42v-30.83Z"/>
  <path class="cls-1" d="M313.06,242.12h21.29v3.47h-17.2v9.8h16.02v3.41h-16.02v10.74h17.33v3.41h-21.42v-30.83Z"/>
  <path class="cls-1" d="M357.28,251.13c-.48-4.43-3.36-6.29-7.65-6.29-3.48,0-6.9,1.27-6.9,5.25,0,7.63,19.74,2.26,19.74,14.39,0,6.55-6.45,9.2-12.07,9.2-6.88,0-12.72-3.43-12.72-10.9h3.87c0,5.17,4.32,7.42,8.99,7.42,3.74,0,7.84-1.13,7.84-5.61,0-8.42-19.74-2.89-19.74-14.19,0-6.23,5.53-9.04,11.17-9.04,6.3,0,11.16,3,11.36,9.76h-3.89Z"/>
  <path class="cls-1" d="M367.4,242.12h4.37l16.24,25.02h.08v-25.02h3.89v30.83h-4.5l-16.1-24.76h-.09v24.76h-3.89v-30.83Z"/>
  <path class="cls-1" d="M398.8,242.12h4.12v30.83h-4.12v-30.83Z"/>
  <path class="cls-1" d="M443.49,251.39c-.9-4.33-4.31-6.55-8.62-6.55-7.34,0-10.45,6.02-10.45,12.5,0,7.03,3.11,12.87,10.5,12.87,5.35,0,8.54-3.76,8.88-8.88h4.1c-.81,7.74-5.52,12.35-13.34,12.35-9.53,0-14.25-7.07-14.25-16.05s5.1-16.26,14.6-16.26c6.41,0,11.79,3.47,12.68,10.02h-4.11Z"/>
  <path class="cls-1" d="M453.03,242.12h21.28v3.47h-17.19v9.8h16.02v3.41h-16.02v10.74h17.33v3.41h-21.41v-30.83Z"/>
  <path class="cls-1" d="M479.38,242.12h4.36l16.24,25.02h.09v-25.02h3.88v30.83h-4.5l-16.11-24.76h-.08v24.76h-3.87v-30.83Z"/>
  <path class="cls-1" d="M517.6,245.59h-10.27v-3.47h24.63v3.47h-10.26v27.36h-4.1v-27.36Z"/>
  <path class="cls-1" d="M543.78,242.12h4.53l12.05,30.83h-4.54l-3.38-9.29h-13.05l-3.43,9.29h-4.26l12.07-30.83ZM540.71,260.19h10.45l-5.13-14.35h-.1l-5.22,14.35Z"/>
  <path class="cls-1" d="M563.38,242.12h14.53c5.81,0,9.37,3.13,9.37,8.06,0,3.77-1.62,6.81-5.35,7.86v.08c3.56.66,4.27,3.34,4.61,6.33.21,2.98.08,6.43,1.8,8.51h-4.57c-1.2-1.26-.53-4.57-1.15-7.6-.45-2.98-1.15-5.59-5.12-5.59h-10.03v13.19h-4.1v-30.83ZM576.05,256.34c3.78,0,7.12-1.01,7.12-5.5,0-3.09-1.64-5.26-5.47-5.26h-10.22v10.76h8.57Z"/>
  <path class="cls-1" d="M602.59,269.54l19.18-23.95h-17.72v-3.47h22.53v3.47l-19.11,23.95h19.64v3.41h-24.52v-3.41Z"/>
  <path class="cls-1" d="M639.75,242.12h4.53l12.07,30.83h-4.53l-3.38-9.29h-13.04l-3.45,9.29h-4.24l12.04-30.83ZM636.69,260.19h10.46l-5.14-14.35h-.1l-5.23,14.35Z"/>
  <path class="cls-1" d="M682.46,269.12c-2.45,3.2-6.31,4.57-9.9,4.57-9.21,0-14.7-7.44-14.7-15.53,0-9,4.92-16.78,14.7-16.78,6.69,0,12.12,3.04,13.24,10.24h-4.1c-.84-4.64-4.54-6.77-9.15-6.77-7.49,0-10.58,6.49-10.58,13.05s3.72,12.32,10.58,12.32c6.36,0,10.1-4.39,9.9-10.06h-9.87v-3.44h13.52v16.23h-2.59l-1.06-3.83Z"/>
  <path class="cls-1" d="M692.16,242.12h14.52c5.81,0,9.38,3.13,9.38,8.06,0,3.77-1.62,6.81-5.35,7.86v.08c3.57.66,4.27,3.34,4.61,6.33.21,2.98.07,6.43,1.79,8.51h-4.56c-1.15-1.26-.54-4.57-1.13-7.6-.46-2.98-1.15-5.59-5.12-5.59h-10.03v13.19h-4.11v-30.83ZM704.83,256.34c3.79,0,7.12-1.01,7.12-5.5,0-3.09-1.64-5.26-5.47-5.26h-10.21v10.76h8.55Z"/>
  <path class="cls-1" d="M721.75,242.12h21.3v3.47h-17.19v9.8h16v3.41h-16v10.74h17.32v3.41h-21.43v-30.83Z"/>
  <path class="cls-1" d="M748.15,242.12h11.19c2.67,0,6.34,0,8.14,1.12,2.04,1.22,3.63,3.39,3.63,6.44,0,3.27-1.65,5.75-4.58,6.93v.08c3.79.79,5.88,3.6,5.88,7.43,0,4.49-3.28,8.84-9.37,8.84h-14.89v-30.83ZM752.25,255.39h8.21c4.65,0,6.56-1.66,6.56-4.95,0-4.27-2.96-4.85-6.56-4.85h-8.21v9.8ZM752.25,269.54h10.28c3.57,0,5.79-2.15,5.79-5.57,0-4.04-3.25-5.17-6.69-5.17h-9.37v10.74Z"/>
  <g>
    <path class="cls-1" d="M260.22,289.56h11.44c2.72,0,6.5,0,8.33,1.15,2.08,1.25,3.72,3.43,3.72,6.55,0,3.41-1.71,5.85-4.71,7.09v.07c3.92.87,6.03,3.72,6.03,7.62,0,4.57-3.36,9.05-9.54,9.05h-15.25v-31.52ZM264.39,303.11h8.41c4.76,0,6.69-1.68,6.69-5.03,0-4.42-3.02-4.95-6.69-4.95h-8.41v9.98ZM264.39,317.56h10.55c3.67,0,5.89-2.18,5.89-5.66,0-4.09-3.29-5.27-6.83-5.27h-9.61v10.93Z"/>
    <path class="cls-1" d="M303.48,308.22v12.86h-4.2v-12.86l-12.14-18.66h4.97l9.46,14.97,9.24-14.97h4.77l-12.1,18.66Z"/>
  </g>
  <path class="cls-1" d="M331.33,288.2h17.26l22.43,39.75h.17v-39.75h15.84v64.53h-17.28l-22.41-40.22h-.17v40.22h-15.84v-64.53Z"/>
  <path class="cls-1" d="M398.51,288.2h16.81v64.53h-16.81v-64.53Z"/>
  <path class="cls-1" d="M469.86,311.25c-1-6.54-5.89-9.96-13.03-9.96-10.85,0-14.99,9.47-14.99,19.17s4.15,19.13,14.99,19.13c7.97,0,12.36-4.44,13.03-11.92h16.81c-.99,16.74-13.13,26.4-29.47,26.4-19.61,0-32.19-14.93-32.19-33.61s12.58-33.66,32.19-33.66c14,0,29.01,8.88,29.47,24.44h-16.81Z"/>
  <path class="cls-1" d="M525.53,286.8c20.24,0,31.78,14.96,31.78,33.66s-11.54,33.61-31.78,33.61-31.81-14.93-31.81-33.61,11.56-33.66,31.81-33.66ZM525.53,339.6c10.84,0,15-9.5,15-19.13s-4.16-19.17-15-19.17-15.03,9.47-15.03,19.17,4.17,19.13,15.03,19.13Z"/>
  <path class="cls-1" d="M566.51,288.2h16.8v50.03h30.09v14.5h-46.89v-64.53Z"/>
  <path class="cls-1" d="M698.53,331.01c.36,7.64,4.96,10.05,12.21,10.05,5.07,0,10.31-1.82,10.31-6.6,0-5.8-9.22-6.79-18.55-9.41-9.1-2.65-18.88-6.71-18.88-18.62,0-14.12,14.2-19.63,26.29-19.63,12.77,0,25.88,6.33,25.88,20.81h-16.84c.28-5.77-5.33-7.76-10.39-7.76-3.6,0-8.14,1.24-8.14,5.47,0,5.07,9.32,5.93,18.73,8.54,9.29,2.61,18.69,6.94,18.69,18.59,0,16.35-13.91,21.63-28.1,21.63s-28.04-6.53-28.04-23.07h16.83Z"/>
  <g>
    <path class="cls-1" d="M750.57,341.15h-3.82v-2.05h10.12v2.05h-3.86v11.35h-2.44v-11.35Z"/>
    <path class="cls-1" d="M769.76,347.03c-.07-1.73-.17-3.8-.16-5.63h-.05c-.44,1.63-.99,3.44-1.59,5.13l-1.97,5.81h-1.86l-1.79-5.73c-.51-1.71-.99-3.54-1.35-5.21h-.04c-.06,1.75-.14,3.88-.24,5.71l-.31,5.39h-2.29l.9-13.4h3.22l1.76,5.39c.47,1.57.9,3.16,1.23,4.65h.07c.35-1.45.81-3.1,1.32-4.67l1.85-5.37h3.19l.78,13.4h-2.39l-.26-5.47Z"/>
  </g>
  <path class="cls-2" d="M127.48,261.34l-31.09,92.65h-9.16s34.44-102.9,34.44-102.9c0,0,2.68,1.61,3.36,3.39.68,1.78,2.45,6.86,2.45,6.86Z"/>
  <path class="cls-1" d="M171.19,353.67s-12.12,1.78-15.95-9.41c-2.1-6.14-11.03-32.63-18.65-55.27l-21.82,64.94-9.18.03,26.34-78.83c-3.04-9.02-5.44-16.17-6.46-19.2-.6-1.78-1.77-3.34-3.37-4.33-1.74-1.08-4.17-1.63-6.98.37-1.63,1.16-2.83,2.84-3.47,4.73l-33.13,97.36-9.05.02,33.24-99.5c1.46-4.37,4.37-8.14,8.31-10.57,4.14-2.54,9.75-3.88,15.78.77,3.05,2.35,5.29,5.57,6.52,9.2l29.07,85.93c1.25,3.72,3.08,7.23,5.46,10.36,1.13,1.48,2.32,2.81,3.34,3.4Z"/>
  <path class="cls-2" d="M198.43,343.95l34.4-102.69-9.03.03-31.22,92.42,1.83,5.53s1.64,4.11,4.03,4.72Z"/>
  <path class="cls-1" d="M250.54,241.2l-33.21,99.57c-1.46,4.36-4.36,8.14-8.3,10.57-4.14,2.55-9.75,3.88-15.79-.76-3.04-2.35-5.28-5.57-6.51-9.2l-29.12-85.91c-1.26-3.72-3.08-7.23-5.47-10.36-1.12-1.48-2.32-2.8-3.34-3.4,0,0,12.12-1.78,15.96,9.41,2.09,6.11,10.96,32.37,18.57,54.94l21.78-64.7,9.24-.03-26.39,78.47c3.11,9.24,5.59,16.58,6.62,19.64.59,1.78,1.76,3.32,3.36,4.31,1.74,1.08,4.17,1.64,6.98-.37,1.64-1.16,2.83-2.83,3.47-4.72l33.12-97.43,9.03-.03Z"/>
  <path class="cls-2" d="M135.15,244.17c-.89-1.07-1.79-1.98-2.58-2.44,0,0,12.12-1.78,15.95,9.41l31.13,91.32c1.08,3.18,2.71,6.16,4.86,8.76.89,1.07,1.79,1.98,2.58,2.44,0,0-12.12,1.78-15.95-9.41l-31.13-91.32c-1.08-3.18-2.71-6.16-4.86-8.76Z"/>
  <path class="cls-1" d="M618.16,352.73l23.5-64.53h15.86l23.51,64.53-16.35-.02-15.18-48.93-14.99,48.93-16.35.02Z"/>
</svg>